<svg width="24" height="24" viewBox="0 0 24 24" fill="none" xmlns="http://www.w3.org/2000/svg">
<g clip-path="url(#clip0_1_14)">
<path d="M9.04204 19.2987C4.04204 20.7987 4.04204 16.7987 2.04204 16.2987M16.042 22.2987V18.4287C16.0795 17.9519 16.0151 17.4725 15.8531 17.0225C15.691 16.5725 15.435 16.1621 15.102 15.8187C18.242 15.4687 21.542 14.2787 21.542 8.81869C21.5418 7.42252 21.0047 6.07989 20.042 5.06869C20.4979 3.8472 20.4657 2.49704 19.952 1.29869C19.952 1.29869 18.772 0.948693 16.042 2.77869C13.75 2.15752 11.334 2.15752 9.04204 2.77869C6.31204 0.948693 5.13204 1.29869 5.13204 1.29869C4.61841 2.49704 4.58618 3.8472 5.04204 5.06869C4.07217 6.08739 3.53456 7.44216 3.54204 8.84869C3.54204 14.2687 6.84204 15.4587 9.98204 15.8487C9.65304 16.1887 9.3993 16.5941 9.23735 17.0386C9.07539 17.4831 9.00885 17.9568 9.04204 18.4287V22.2987" stroke="black" stroke-width="2" stroke-linecap="round" stroke-linejoin="round"/>
</g>
<defs>
<clipPath id="clip0_1_14">
<rect width="24" height="24" fill="white" transform="translate(0.042038 0.298695)"/>
</clipPath>
</defs>
</svg>
