<svg width="25" height="25" viewBox="0 0 25 25" fill="none" xmlns="http://www.w3.org/2000/svg">
<path d="M3.86207 6.58621H5.86207H21.8621" stroke="red" stroke-width="2" stroke-linecap="round" stroke-linejoin="round"/>
<path d="M19.8621 6.58621V20.5862C19.8621 21.1166 19.6514 21.6253 19.2763 22.0004C18.9012 22.3755 18.3925 22.5862 17.8621 22.5862H7.86207C7.33164 22.5862 6.82293 22.3755 6.44785 22.0004C6.07278 21.6253 5.86207 21.1166 5.86207 20.5862V6.58621M8.86207 6.58621V4.58621C8.86207 4.05578 9.07278 3.54707 9.44785 3.17199C9.82293 2.79692 10.3316 2.58621 10.8621 2.58621H14.8621C15.3925 2.58621 15.9012 2.79692 16.2763 3.17199C16.6514 3.54707 16.8621 4.05578 16.8621 4.58621V6.58621" stroke="red" stroke-width="2" stroke-linecap="round" stroke-linejoin="round"/>
<path d="M10.8621 11.5862V17.5862" stroke="red" stroke-width="2" stroke-linecap="round" stroke-linejoin="round"/>
<path d="M14.8621 11.5862V17.5862" stroke="red" stroke-width="2" stroke-linecap="round" stroke-linejoin="round"/>
</svg>
